<svg width="41" height="39" viewBox="0 0 41 39" fill="none" xmlns="http://www.w3.org/2000/svg">
<rect width="41" height="39" fill="#826C7F"/>
<path d="M28.7824 24.833L25.6666 21.7177C25.5259 21.5771 25.3353 21.499 25.1353 21.499H24.6259C25.4884 20.396 26.001 19.0086 26.001 17.4994C26.001 13.9091 23.0914 11 19.5005 11C15.9096 11 13 13.9091 13 17.4994C13 21.0896 15.9096 23.9987 19.5005 23.9987C21.01 23.9987 22.3976 23.4863 23.5008 22.6239V23.1332C23.5008 23.3332 23.5789 23.5238 23.7195 23.6644L26.8354 26.7797C27.1292 27.0734 27.6042 27.0734 27.8948 26.7797L28.7793 25.8954C29.0731 25.6017 29.0731 25.1267 28.7824 24.833ZM19.5005 21.499C17.2909 21.499 15.5002 19.7116 15.5002 17.4994C15.5002 15.2902 17.2878 13.4998 19.5005 13.4998C21.71 13.4998 23.5008 15.2871 23.5008 17.4994C23.5008 19.7085 21.7131 21.499 19.5005 21.499Z" fill="#D4E5F7"/>
</svg>
